<svg width="69" height="46" viewBox="0 0 69 46" fill="none" xmlns="http://www.w3.org/2000/svg">
<path d="M68.6643 13.8509L66.8461 14.1673C63.1404 14.8124 59.6928 15.7967 56.555 16.9553V6.97317L55.5866 7.41088C53.3863 8.40349 51.2996 9.4407 49.311 10.5339L49.2439 0.075716L48.1907 0.751978C43.0674 4.0389 38.3695 7.7739 34.1744 11.8854C30.1342 8.04772 25.5798 4.32102 20.5793 0.769611L19.4952 0V10.8399C17.329 9.61703 15.108 8.50306 12.8406 7.50734L11.8732 7.08208L11.9186 16.3641C8.60013 15.219 5.25892 14.4712 1.94766 14.133L0.318359 13.9671L13.361 30.3426L13.3032 18.3555C15.5448 19.2341 17.6191 20.237 19.4962 21.2711V31.6484L19.6315 31.832C23.4662 37.0181 33.5549 45.4537 33.9823 45.8105L34.4191 46.1746L34.8579 45.8126C35.2853 45.4599 45.3812 37.1114 49.2191 31.7231L49.4452 31.3352L49.3832 21.6736C51.1468 20.7422 53.0858 19.8211 55.1818 18.9685V30.3934L68.6643 13.8509ZM56.555 18.4292C59.2241 17.4189 62.1275 16.5332 65.2312 15.8828L56.555 26.5267V18.4292ZM3.46649 15.7117C6.46386 16.1452 9.29707 16.8993 11.9238 17.839L11.9651 26.3815L3.46649 15.7117ZM47.8758 2.60133L47.8892 11.3336C44.8195 13.1031 41.9843 15.0219 39.3183 17.1399C38.7381 16.4989 38.1413 15.859 37.528 15.22C36.7598 14.4193 35.9668 13.6238 35.1553 12.8313C38.9828 9.08182 43.2119 5.68288 47.8758 2.60133ZM24.7713 22.8871C23.4869 22.0169 22.1838 21.2058 20.8684 20.4548V13.2452C23.4177 14.7937 25.8833 16.4989 28.2498 18.3514C27.0459 19.8149 25.8854 21.3271 24.7713 22.8871ZM29.3164 19.1998C30.6576 20.2879 31.9658 21.4236 33.2379 22.6039C32.0092 23.8486 30.8105 25.1545 29.6344 26.5277C28.5462 25.6285 27.2948 24.6576 25.8967 23.6661C26.9912 22.132 28.1301 20.6426 29.3164 19.1998ZM38.2579 17.9998C36.8682 19.1511 35.5249 20.3584 34.2167 21.6331C32.9147 20.4227 31.5755 19.2589 30.2023 18.1439C31.4785 16.6452 32.8073 15.1951 34.1899 13.7928C35.6219 15.1869 36.9787 16.5892 38.2579 17.9998ZM38.0504 27.482C36.2094 28.9662 34.9374 30.1663 34.2797 30.8156C33.6468 30.1497 32.4274 28.9226 30.6866 27.4176C31.8461 26.0651 33.0293 24.7779 34.2404 23.552C35.5528 24.8142 36.8228 26.1242 38.0504 27.482ZM29.7955 28.4756C32.3169 30.66 33.7283 32.2479 33.75 32.2718L34.2497 32.8392L34.766 32.2863C34.7866 32.2635 36.2621 30.6963 38.9693 28.5161C39.8315 29.5035 40.6709 30.5148 41.4866 31.5478L34.4635 38.2181L27.3319 31.5955C28.1445 30.5179 28.9643 29.4786 29.7955 28.4756ZM35.2193 22.5822C36.5006 21.3365 37.8181 20.1561 39.1779 19.0308C40.5739 20.6208 41.8707 22.2181 43.0632 23.8175C42.9352 23.9025 42.8092 23.9866 42.6853 24.0695C41.3617 24.9595 40.1753 25.8235 39.1345 26.6263C37.8738 25.2291 36.5677 23.8808 35.2193 22.5822ZM40.2404 18.1719C42.6358 16.2749 45.1706 14.5407 47.8933 12.932L47.9057 20.9019C46.5666 21.6342 45.3337 22.3664 44.2166 23.0728C42.9992 21.4381 41.6725 19.8035 40.2404 18.1719ZM20.8684 2.67497C25.4156 5.96915 29.5425 9.37639 33.2069 12.849C32.4903 13.575 31.7882 14.3104 31.1026 15.0582C30.4346 15.7884 29.779 16.5342 29.1347 17.2914C26.4935 15.2221 23.7316 13.3313 20.8684 11.6354V2.67497ZM15.2774 17.6627C14.6176 17.3806 13.9558 17.113 13.2929 16.8619L13.2557 9.20629C15.3806 10.1771 17.4622 11.2537 19.4931 12.4289V19.6946C18.0982 18.9478 16.6909 18.2684 15.2774 17.6627ZM23.9804 24.0146C22.8963 25.5859 21.8576 27.1998 20.8694 28.8542V22.0522C21.9897 22.7118 23.0305 23.3736 23.9804 24.0146ZM34.4222 44.3792C32.4656 42.7196 24.4646 35.8388 21.0037 31.3653C22.2902 29.0876 23.6572 26.899 25.1058 24.7956C26.4615 25.7581 27.6809 26.7051 28.7444 27.5857C27.7697 28.7629 26.8095 29.9879 25.8585 31.2657L25.4879 31.7636L34.4738 40.109L43.341 31.6878L42.9569 31.1931C42.0204 29.9868 41.0519 28.8096 40.0535 27.6635C41.055 26.8918 42.1908 26.0651 43.4504 25.2188C43.5898 25.1244 43.7333 25.0289 43.8779 24.9335C45.3854 27.0432 46.7121 29.1571 47.8469 31.2647C44.4014 35.8854 36.3829 42.731 34.4222 44.3792ZM47.9171 28.5959C47.0456 27.1303 46.0833 25.6606 45.0312 24.1888C45.9181 23.6298 46.8784 23.0541 47.9078 22.4764L47.9171 28.5959ZM49.3708 20.1229L49.3192 12.1084C51.1808 11.0619 53.1292 10.0672 55.1797 9.11502V17.4822C53.09 18.3099 51.1478 19.2081 49.3708 20.1229Z" fill="#fff"/>
</svg>
